<svg height="500" viewBox="0 0 2126 500" width="2126" xmlns="http://www.w3.org/2000/svg" xmlns:xlink="http://www.w3.org/1999/xlink"><linearGradient id="a" x1=".033532%" x2="100%" y1="75.782541%" y2="5.926272%"><stop offset="0" stop-color="#f800a7"/><stop offset=".46914717" stop-color="#296aee"/><stop offset="1" stop-color="#00f4cb"/></linearGradient><linearGradient id="b" x1="100%" x2="0%" y1="22.62931%" y2="75.800108%"><stop offset="0" stop-color="#f800a7"/><stop offset=".497110271" stop-color="#296aee"/><stop offset="1" stop-color="#00f4cb"/></linearGradient><g fill="none" fill-rule="evenodd"><g transform="matrix(0 1 -1 0 580 0)"><path d="m248.649146 440.273792c1.714051-.035833 2.667899-.085095 2.667899-.085095l-.11193.179126c11.03891.30266 47.286631.11068 69.966588-14.06133 27.009929-16.877677 45.463968-60.260962 45.463968-60.260962l63.590311 101.765772s-47.861153-3.677936-74.871082 13.199741-43.855651 60.988956-43.855651 60.988956l-61.900483-99.061481-61.872033 99.01595s-17.675241-44.629621-44.68517-61.507298-74.041563-12.681399-74.041563-12.681399l63.590312-101.765772s17.624519 42.864944 44.634448 59.742621c22.665257 14.162824 59.464815 14.728732 70.717127 14.544338l-.03295-.052731s.255711.016309.740209.039564zm120.830433-78.246177s27.011962-40.351499 27.011962-74.47599c0-34.124492-27.011962-75.52401-27.011962-75.52401h120s-28.481613 41.399518-28.481613 75.52401c0 34.124491 28.481613 74.47599 28.481613 74.47599zm-358.4333221-.018642s27.0119616-40.351499 27.0119616-74.47599-27.0119616-75.52401-27.0119616-75.52401h120.0000001s-28.481614 41.399519-28.481614 75.52401 28.481614 74.47599 28.481614 74.47599zm179.3046871-107s27.011962-40.351499 27.011962-74.47599-27.011962-75.52401-27.011962-75.52401h120s-23.481613 41.399519-23.481613 75.52401 23.481613 74.47599 23.481613 74.47599z" fill="url(#a)"/><path d="m70 247c-38.6586667 0-70-31.341333-70-70s31.3413333-70 70-70c38.658667 0 70 31.341333 70 70s-31.341333 70-70 70zm0 220c-38.6586667 0-70-31.341333-70-70s31.3413333-70 70-70c38.658667 0 70 31.341333 70 70s-31.341333 70-70 70zm360-220c-38.658667 0-70-31.341333-70-70s31.341333-70 70-70 70 31.341333 70 70-31.341333 70-70 70zm0 220c-38.658667 0-70-31.341333-70-70s31.341333-70 70-70 70 31.341333 70 70-31.341333 70-70 70zm-180 113c-38.658667 0-70-31.341333-70-70s31.341333-70 70-70 70 31.341333 70 70-31.341333 70-70 70zm2-222c-38.658667 0-70-31.341333-70-70s31.341333-70 70-70 70 31.341333 70 70-31.341333 70-70 70zm-72-288c0-38.6586667 31.341333-70 70-70 38.668 0 70 31.3413333 70 70 0 38.658667-31.332 70-70 70-38.658667 0-70-31.341333-70-70z" fill="url(#b)"/></g><path d="m736.4 250.4c0-47.2 38.8-84.4 82.4-84.4 24 0 42.8 9.6 57.2 28 2.8 3.6 2 8.4-1.6 11.2l-7.6 6.4c-6 5.6-8 1.6-11.6-1.6-8-9.2-21.2-16.8-36.8-16.8-30 0-53.2 24.8-53.2 56.8s22.8 57.6 52.8 57.6c24 0 33.2-12 42.4-20.8 4.8-4.8 7.6-4 12-.8l4.4 3.2c4 2.8 5.2 7.2 2.8 11.2-12 19.2-34 33.6-61.2 33.6-44.4 0-82-35.6-82-83.6zm206.8-.4c0-45.2 30-84 78.4-84 42 0 72.4 31.2 72.4 73.2 0 2.8-.4 8-.8 10.8-.4 4-3.6 6.8-7.2 6.8h-115.2c1.6 26.8 25.2 52 53.6 52 16.8 0 30.4-6.4 39.6-12 5.6-3.2 8-5.2 11.2-.8 2.4 3.2 4.4 6 6.8 9.2 2.8 3.6 4.4 6-1.6 10.4-9.6 7.6-31.2 18.4-58.8 18.4-48.4 0-78.4-38-78.4-84zm28-15.6h95.2c-1.2-23.2-20.4-44-44.8-44-26.8 0-47.6 19.2-50.4 44zm196.4 88v-144.8c0-4 3.6-7.6 7.6-7.6h7.6c3.2 0 6 2 6.8 5.6l3.2 11.6s14.8-21.2 48-21.2c12 0 32 2 28 13.2l-4.8 13.6c-2 5.2-5.6 5.2-9.6 3.6-3.6-1.6-9.6-3.2-15.6-3.2-30.4 0-43.6 22.4-43.6 22.4v106.8c0 4-3.6 7.6-7.6 7.6h-12.4c-4 0-7.6-3.6-7.6-7.6zm150.8-72.4c0-45.2 30-84 78.4-84 42 0 72.4 31.2 72.4 73.2 0 2.8-.4 8-.8 10.8-.4 4-3.6 6.8-7.2 6.8h-115.2c1.6 26.8 25.2 52 53.6 52 16.8 0 30.4-6.4 39.6-12 5.6-3.2 8-5.2 11.2-.8 2.4 3.2 4.4 6 6.8 9.2 2.8 3.6 4.4 6-1.6 10.4-9.6 7.6-31.2 18.4-58.8 18.4-48.4 0-78.4-38-78.4-84zm28-15.6h95.2c-1.2-23.2-20.4-44-44.8-44-26.8 0-47.6 19.2-50.4 44zm196.8 88v-264.8c0-4 3.6-7.6 7.6-7.6h12.4c4 0 7.6 3.6 7.6 7.6v118.8s16.4-10.4 42.8-10.4c48 0 76.8 36.8 76.8 83.6 0 46-32 84.4-72.8 84.4-30 0-49.2-21.2-49.2-21.2l-2.4 10.8c-.8 3.6-3.2 6.4-6.8 6.4h-8.4c-4 0-7.6-3.6-7.6-7.6zm28-40s14.8 26.4 43.6 26.4c29.2 0 47.6-27.6 47.6-58.8 0-32-17.6-57.2-52.4-57.2-22 0-38.8 9.6-38.8 9.6zm194.4 40v-144.8c0-4 3.6-7.6 7.6-7.6h7.6c3.2 0 6 2 6.8 5.6l3.2 11.6s14.8-21.2 48-21.2c12 0 32 2 28 13.2l-4.8 13.6c-2 5.2-5.6 5.2-9.6 3.6-3.6-1.6-9.6-3.2-15.6-3.2-30.4 0-43.6 22.4-43.6 22.4v106.8c0 4-3.6 7.6-7.6 7.6h-12.4c-4 0-7.6-3.6-7.6-7.6zm152-40.8c0-30.4 22.8-53.2 64-53.2 17.2 0 34 5.2 34 5.2.4-29.6-3.2-43.2-26-43.2-22 0-40.8 6-48 8.8-4 1.6-6.4-.4-7.6-4l-3.2-10c-1.6-4.8.8-7.2 4.4-8.8 2.4-1.2 25.6-10.4 55.6-10.4 40.8 0 50.8 20.8 50.8 67.6v88.8c0 4-3.6 7.6-7.6 7.6h-7.6c-4.4 0-5.6-2.4-6.8-6l-3.2-10.8c-8.4 8.4-24.8 20.8-49.6 20.8-28 0-49.2-20.4-49.2-52.4zm25.6 0c0 16 10.8 28.4 28 28.4 20 0 37.2-12.4 44-22.4v-31.6c-4.8-2.8-16-6.4-33.6-6.4-22.4 0-38.4 11.2-38.4 32zm154.4 40.8v-264.8c0-4 3.6-7.6 7.6-7.6h12.4c4 0 7.6 3.6 7.6 7.6v264.8c0 4-3.6 7.6-7.6 7.6h-12.4c-4 0-7.6-3.6-7.6-7.6z" fill="#212b35"/></g></svg>